<?xml version="1.0" encoding="UTF-8" standalone="no"?>
<svg
   xmlns:dc="http://purl.org/dc/elements/1.1/"
   xmlns:cc="http://creativecommons.org/ns#"
   xmlns:rdf="http://www.w3.org/1999/02/22-rdf-syntax-ns#"
   xmlns:svg="http://www.w3.org/2000/svg"
   xmlns="http://www.w3.org/2000/svg"
   viewBox="0 0 160 160"
   height="160"
   width="160"
   xml:space="preserve"
   id="svg2"
   version="1.1"><metadata
     id="metadata8"><rdf:RDF><cc:Work
         rdf:about=""><dc:format>image/svg+xml</dc:format><dc:type
           rdf:resource="http://purl.org/dc/dcmitype/StillImage" /></cc:Work></rdf:RDF></metadata><defs
     id="defs6"><clipPath
       id="clipPath20"
       clipPathUnits="userSpaceOnUse"><path
         id="path18"
         d="M 0,1178.69 V 0 h 6000.85 v 1178.69 z" /></clipPath></defs><g
     transform="matrix(1.3333333,0,0,-1.3333333,0,157.16)"
     id="g10"><g
       transform="scale(0.1)"
       id="g12"><g
         id="g14"><g
           clip-path="url(#clipPath20)"
           id="g16"><path
             id="path24"
             style="fill:#f7f7f7;fill-opacity:1;fill-rule:nonzero;stroke:none"
             d="M 840.719,105.18 V 420.691 H 945.883 V 0 H 0 V 420.691 H 105.164 V 105.18 h 735.555" /><path
             id="path26"
             style="fill:#f7f7f7;fill-opacity:1;fill-rule:nonzero;stroke:none"
             d="M 210.445,210.359 H 736.266 V 315.523 H 210.445 Z m 471.266,968.331 -84.383,-62.76 313.817,-421.914 84.382,62.761 z M 420.879,929.949 824.926,593.445 892.227,674.258 488.18,1010.76 Z M 288.973,696.102 765.637,474.109 810.035,569.441 333.371,791.434 Z M 220.887,449.711 735.469,341.562 757.098,444.48 242.516,552.629 220.887,449.711" /></g></g></g></g></svg>